# xmcd CD database file generated by OrangeCD 6.2
#
# Track frame offsets:
#	150
#	19013
#	35959
#	57333
#	73388
#	88364
#	111476
#	129437
#	143070
#	159019
#	175086
#
# Disc length: 2524 seconds
#
# Revision: 0
# Processed by: cddbd v1.5.2PL0 Copyright (c) Steve Scherf et al.
# Submitted via: OrangeCD 6.2
#
DISCID=9e09da0b
DTITLE=Tift Merritt - Another Country
DYEAR=2008
DGENRE=
TTITLE0=Something To Me
TTITLE1=Broken
TTITLE2=Another Country
TTITLE3=Hopes Too High
TTITLE4=Morning Is My Destination
TTITLE5=Keep You Happy
TTITLE6=I Know What I'm Looking For Now
TTITLE7=Tell Me Something True
TTITLE8=My Heart Is Free
TTITLE9=Tender Branch
TTITLE10=Mille Tendresses
EXTD=
EXTT0=
EXTT1=
EXTT2=
EXTT3=
EXTT4=
EXTT5=
EXTT6=
EXTT7=
EXTT8=
EXTT9=
EXTT10=
PLAYORDER=
